<?xml version="1.0" encoding="utf-8"?>
<svg xmlns="http://www.w3.org/2000/svg" version="1.1" height="276" width="276">
<path fill="#0097C2" fill-rule="evenodd" d="M138,1.75a136.25,136.25,0,1,0,.001,0zv10.5a125.75,125.75,0,1,0,.001,0zv16.58a119.672,119.672,0,1,0,0.001,0zM54.271,185.435l-0.387,0.176c-0.369-0.735-0.725-1.172-1.069-1.309c-0.344-0.138-0.841-0.049-1.493,0.266l-8.471,4.085c-0.658,0.317-1.037,0.652-1.137,1.004s0.011,0.909,0.335,1.673l-0.373,0.18l-2.915-6.044c-0.715-1.481-1.001-2.76-0.859-3.837c0.142-1.076,0.696-1.848,1.662-2.313c0.664-0.319,1.347-0.383,2.05-0.188c0.704,0.193,1.368,0.637,1.994,1.328c-0.288-1.11-0.295-2.051-0.024-2.821c0.271-0.77,0.816-1.352,1.634-1.746c1.227-0.592,2.354-0.575,3.382,0.05c1.028,0.626,2,1.887,2.914,3.782L54.271,185.435z M44.766,185.264c0.361-0.174,0.563-0.312,0.606-0.413c0.043-0.101-0.013-0.312-0.167-0.631l-0.141-0.294c-0.663-1.374-1.34-2.264-2.032-2.668c-0.691-0.404-1.491-0.388-2.397,0.05c-0.877,0.423-1.386,0.999-1.527,1.729c-0.142,0.729,0.074,1.687,0.646,2.871c0.329,0.682,0.584,1.064,0.767,1.147c0.183,0.084,0.487,0.022,0.914-0.184L44.766,185.264z M50.775,182.366c0.355-0.172,0.557-0.368,0.604-0.588s-0.089-0.662-0.409-1.325l-0.193-0.4c-0.532-1.102-1.175-1.827-1.931-2.175c-0.756-0.348-1.584-0.304-2.485,0.13c-0.918,0.443-1.456,1.09-1.612,1.939c-0.156,0.85,0.069,1.902,0.675,3.159l0.343,0.711c0.171,0.355,0.316,0.556,0.433,0.602c0.117,0.046,0.318,0,0.603-0.137L50.775,182.366zM48.504,173.432l-0.407,0.119c-0.268-0.777-0.558-1.261-0.87-1.447c-0.312-0.188-0.819-0.17-1.521,0.054l-8.961,2.853c-0.689,0.22-1.111,0.495-1.264,0.827s-0.122,0.901,0.094,1.71l-0.395,0.125l-3.627-11.396l2.886-1.116l0.129,0.405c-0.803,0.407-1.295,0.845-1.477,1.313s-0.122,1.18,0.182,2.133l1.071,3.366c0.13,0.408,0.264,0.655,0.402,0.742c0.139,0.087,0.421,0.063,0.847-0.072l3.583-1.141c0.276-0.088,0.44-0.178,0.494-0.271c0.053-0.093,0.034-0.283-0.058-0.571l-0.844-2.652c-0.331-1.04-0.677-1.678-1.038-1.911c-0.361-0.234-0.911-0.254-1.65-0.061l-0.129-0.404l4.58-1.457l0.129,0.404c-0.749,0.293-1.208,0.638-1.375,1.033c-0.167,0.395-0.086,1.112,0.245,2.153l0.85,2.671c0.082,0.257,0.171,0.413,0.268,0.469c0.097,0.055,0.287,0.038,0.569-0.052l3.987-1.27c0.489-0.155,0.787-0.32,0.893-0.496s0.1-0.451-0.02-0.827l-0.991-3.113c-0.401-1.26-0.871-2.113-1.41-2.56s-1.389-0.716-2.551-0.809l0.062-0.424l3.604,0.003L48.504,173.432zM44.497,160.078l-0.416,0.084c-0.18-0.796-0.417-1.306-0.714-1.528c-0.296-0.223-0.805-0.261-1.528-0.116l-9.202,1.844c-0.703,0.141-1.152,0.375-1.349,0.703c-0.196,0.327-0.225,0.887-0.086,1.678l-0.416,0.083l-1.25-6.241l0.418-0.073c0.195,0.807,0.442,1.317,0.74,1.532c0.298,0.216,0.799,0.253,1.502,0.112l9.202-1.844c0.709-0.143,1.161-0.375,1.354-0.699s0.22-0.885,0.081-1.682l0.414-0.094L44.497,160.078zM28.285,146.709l0.412-0.048c0.11,0.789,0.315,1.305,0.615,1.549c0.299,0.243,0.851,0.319,1.655,0.228l7.441-0.854c1.406-0.161,2.513,0.026,3.323,0.563c0.81,0.537,1.283,1.396,1.418,2.579c0.084,0.732-0.023,1.354-0.323,1.865c-0.299,0.511-0.719,0.797-1.262,0.859c-0.248,0.028-0.46-0.034-0.637-0.189s-0.281-0.37-0.313-0.645c-0.03-0.262,0.018-0.497,0.143-0.707c0.125-0.21,0.33-0.397,0.616-0.563c0.031-0.017,0.075-0.038,0.131-0.064c0.56-0.316,0.821-0.641,0.783-0.974c-0.036-0.308-0.162-0.526-0.378-0.657s-0.528-0.173-0.934-0.127l-9.755,1.12c-0.824,0.094-1.352,0.299-1.583,0.613s-0.301,0.884-0.207,1.707l-0.421,0.049L28.285,146.709zM42.15,144.27l-0.424,0.014c-0.045-0.814-0.196-1.356-0.451-1.625s-0.751-0.391-1.488-0.367l-9.38,0.297c-0.716,0.022-1.199,0.18-1.446,0.471s-0.368,0.838-0.363,1.641l-0.424,0.013l-0.202-6.362l0.424-0.003c0.06,0.827,0.218,1.372,0.477,1.634s0.746,0.381,1.462,0.358l9.38-0.297c0.724-0.022,1.207-0.178,1.452-0.466c0.244-0.287,0.363-0.835,0.357-1.645l0.424-0.023L42.15,144.27zM39.635,133.998c0.774,0.065,1.283-0.021,1.527-0.258c0.244-0.237,0.431-0.77,0.56-1.597l0.423,0.036l-0.422,5.015l-0.423-0.035c0.011-0.838-0.084-1.394-0.286-1.668c-0.201-0.274-0.688-0.444-1.462-0.509l-9.745-0.819c-0.488,0.229-0.857,0.494-1.106,0.793c-0.25,0.299-0.413,0.667-0.489,1.103l-0.423-0.036l0.301-3.589l10.596-7.418l-7.572-0.636c-0.773-0.065-1.282,0.02-1.526,0.253c-0.244,0.234-0.427,0.762-0.549,1.583l-0.423-0.036l0.42-4.995l0.423,0.035c-0.017,0.831,0.075,1.383,0.276,1.657c0.202,0.274,0.689,0.444,1.462,0.509l11.604,0.975l-0.036,0.423l-12.031,8.466L39.635,133.998zM44.995,108.356c0.334,0.999,0.526,1.998,0.575,2.997c0.049,0.999-0.05,1.996-0.298,2.992c-0.554,2.222-1.638,3.856-3.252,4.905c-1.614,1.049-3.456,1.315-5.523,0.799c-2.139-0.534-3.71-1.663-4.713-3.388c-1.004-1.725-1.23-3.692-0.68-5.901c0.215-0.862,0.569-1.685,1.063-2.471c0.495-0.785,0.751-1.216,0.77-1.293c0.04-0.159,0.01-0.313-0.089-0.459c-0.099-0.146-0.259-0.278-0.481-0.395l0.074-0.337l4.237,0.833l-0.103,0.412c-1.372,0.173-2.416,0.547-3.132,1.121c-0.716,0.574-1.218,1.439-1.506,2.594c-0.401,1.608-0.147,3.043,0.762,4.304c0.91,1.261,2.315,2.128,4.218,2.603c1.928,0.48,3.589,0.37,4.985-0.333c1.396-0.703,2.298-1.874,2.707-3.515c0.151-0.606,0.201-1.206,0.149-1.799s-0.198-1.116-0.438-1.569l-3.667-0.915c-0.785-0.196-1.293-0.204-1.525-0.024c-0.231,0.18-0.48,0.721-0.746,1.625l-0.431-0.107l1.447-5.803l0.431,0.107c-0.145,0.663-0.15,1.124-0.015,1.385c0.135,0.261,0.547,0.477,1.237,0.649L44.995,108.356zM37.122,94.481l-0.376-0.196l2.873-5.525l0.368,0.191c-0.338,0.707-0.445,1.237-0.321,1.591c0.124,0.354,0.574,0.732,1.35,1.136l5.324,2.768c1.459,0.759,2.691,1.027,3.697,0.804c1.005-0.222,1.825-0.943,2.459-2.164c0.646-1.243,0.775-2.401,0.388-3.474c-0.388-1.073-1.256-1.959-2.604-2.661l-5.323-2.768c-0.753-0.392-1.33-0.53-1.73-0.416s-0.79,0.522-1.169,1.222l-0.381-0.187l2.276-4.378l0.368,0.191c-0.298,0.631-0.37,1.139-0.214,1.524c0.156,0.385,0.602,0.769,1.337,1.151l5.078,2.64c1.751,0.911,2.848,2.039,3.29,3.385c0.442,1.346,0.219,2.874-0.67,4.584c-0.455,0.875-0.977,1.602-1.566,2.178c-0.589,0.577-1.213,0.971-1.873,1.185c-0.603,0.19-1.246,0.222-1.928,0.093c-0.682-0.128-1.501-0.441-2.459-0.939l-4.658-2.422c-1.109-0.577-1.88-0.822-2.314-0.736C37.908,93.344,37.501,93.752,37.122,94.481zM56.519,82.736c0.623,0.464,1.1,0.66,1.433,0.588s0.772-0.425,1.32-1.059l0.34,0.254l-3.009,4.034l-0.34-0.254c0.452-0.705,0.666-1.227,0.64-1.567c-0.026-0.339-0.35-0.741-0.972-1.205l-7.838-5.848c-0.536-0.063-0.989-0.034-1.359,0.088c-0.37,0.123-0.703,0.348-0.998,0.678l-0.34-0.254l2.154-2.887l12.916-0.694l-6.09-4.544c-0.622-0.464-1.099-0.662-1.429-0.592s-0.765,0.42-1.303,1.053l-0.34-0.254l2.998-4.018l0.34,0.254c-0.454,0.696-0.667,1.213-0.642,1.553c0.026,0.34,0.35,0.742,0.972,1.206l9.333,6.964l-0.254,0.34l-14.688,0.824L56.519,82.736zM66.053,74.361l-0.308-0.292c0.546-0.606,0.824-1.094,0.835-1.465c0.011-0.37-0.251-0.809-0.787-1.314l-6.819-6.448c-0.521-0.493-0.972-0.725-1.353-0.695s-0.854,0.329-1.42,0.898l-0.308-0.292l4.373-4.625l0.302,0.299c-0.545,0.625-0.82,1.121-0.824,1.489c-0.004,0.368,0.255,0.798,0.776,1.291l6.819,6.448c0.526,0.498,0.977,0.731,1.353,0.702c0.376-0.029,0.849-0.331,1.419-0.905l0.315,0.285L66.053,74.361zM76.571,64.647l-11.135-5.515c-0.958-0.477-1.678-0.735-2.163-0.775c-0.484-0.041-0.917,0.095-1.3,0.407L61.7,58.439l4.539-3.803l0.265,0.332c-0.495,0.475-0.789,0.824-0.88,1.047c-0.092,0.223-0.052,0.438,0.122,0.645c0.177,0.212,0.949,0.669,2.313,1.371s3.679,1.822,6.943,3.362l-2.431-8.663c-0.089-0.312-0.177-0.572-0.264-0.783c-0.086-0.211-0.172-0.367-0.256-0.467c-0.194-0.232-0.418-0.325-0.672-0.28c-0.254,0.045-0.625,0.252-1.116,0.62l-0.28-0.319l3.237-2.712l0.273,0.325c-0.276,0.265-0.428,0.586-0.456,0.961c-0.029,0.376,0.084,1.002,0.338,1.879l3.536,12.41L76.571,64.647zM82.316,59.512l-0.213-0.367c0.691-0.446,1.09-0.843,1.198-1.19c0.107-0.347-0.031-0.835-0.416-1.463l-4.911-8.021c-0.378-0.617-0.747-0.961-1.105-1.03c-0.359-0.069-0.905,0.097-1.638,0.5l-0.216-0.354l10.2-6.245l1.773,2.536l-0.362,0.222c-0.587-0.682-1.13-1.055-1.629-1.12c-0.499-0.065-1.175,0.164-2.027,0.686l-3.013,1.845c-0.365,0.224-0.573,0.413-0.625,0.568c-0.052,0.155,0.04,0.423,0.273,0.805l1.963,3.207c0.151,0.247,0.278,0.385,0.381,0.415c0.103,0.03,0.284-0.035,0.542-0.192l2.374-1.453c0.931-0.57,1.467-1.059,1.608-1.465c0.141-0.406,0.029-0.945-0.336-1.617l0.362-0.221l2.509,4.099l-0.362,0.222c-0.464-0.657-0.908-1.02-1.332-1.088s-1.102,0.183-2.033,0.753l-2.39,1.463c-0.23,0.141-0.36,0.265-0.391,0.373s0.031,0.287,0.186,0.54l2.185,3.569c0.268,0.438,0.5,0.687,0.696,0.749s0.462-0.011,0.798-0.217l2.786-1.706c1.127-0.69,1.844-1.351,2.148-1.981c0.305-0.63,0.363-1.52,0.176-2.67l0.426-0.041l0.859,3.5L82.316,59.512zM94.18,52.27l-0.166-0.391l0.236-0.1c0.648-0.274,1.042-0.594,1.181-0.959c0.138-0.365,0.06-0.896-0.234-1.594l-3.656-8.654c-0.264-0.624-0.572-0.99-0.925-1.099c-0.353-0.108-0.924-0.006-1.713,0.306l-0.165-0.391l6.536-2.762c1.448-0.612,2.675-0.794,3.679-0.547c1.004,0.247,1.734,0.91,2.19,1.989c0.356,0.842,0.382,1.656,0.078,2.441c-0.304,0.786-0.925,1.52-1.865,2.203c2.59,1.448,4.476,2.428,5.656,2.94c1.181,0.512,1.969,0.706,2.367,0.581l0.165,0.391l-2.918,1.233c-1.164-0.522-2.353-1.102-3.568-1.738c-1.215-0.637-2.46-1.332-3.736-2.085l-1.173,0.496c-0.182,0.077-0.296,0.166-0.342,0.268s-0.034,0.237,0.038,0.407l1.344,3.182c0.294,0.697,0.629,1.12,1.002,1.269c0.374,0.149,0.912,0.075,1.615-0.222l0.164-0.069l0.165,0.391L94.18,52.27z M95.16,43.585c0.074,0.176,0.166,0.283,0.276,0.323c0.109,0.04,0.252,0.022,0.428-0.052c1.551-0.655,2.577-1.364,3.077-2.125c0.5-0.761,0.533-1.654,0.101-2.678c-0.397-0.939-0.979-1.504-1.745-1.695s-1.779-0.02-3.04,0.513c-0.57,0.241-0.9,0.453-0.99,0.638c-0.09,0.184-0.044,0.492,0.138,0.922L95.16,43.585zM108.997,46.67l-1.924-4.15l0.41-0.111c0.785,1.034,1.625,1.778,2.518,2.231c0.894,0.453,1.746,0.569,2.559,0.348c0.717-0.195,1.257-0.586,1.619-1.175c0.362-0.589,0.449-1.227,0.263-1.912c-0.136-0.501-0.425-0.926-0.867-1.273c-0.441-0.347-1.056-0.625-1.842-0.834l-2.451-0.705c-1.053-0.287-1.854-0.657-2.403-1.111s-0.923-1.046-1.121-1.776c-0.279-1.029-0.142-1.967,0.411-2.816c0.554-0.849,1.417-1.433,2.592-1.752c0.546-0.148,1.153-0.204,1.821-0.167c0.668,0.037,1.059,0.04,1.173,0.009c0.146-0.04,0.248-0.122,0.306-0.247c0.058-0.125,0.072-0.292,0.042-0.502l0.353-0.096l1.554,3.955l-0.41,0.111c-0.687-1-1.417-1.705-2.19-2.116c-0.772-0.41-1.553-0.509-2.34-0.295c-0.667,0.181-1.16,0.518-1.479,1.01c-0.32,0.493-0.398,1.037-0.237,1.634c0.126,0.464,0.387,0.846,0.782,1.148s1.003,0.569,1.824,0.804l2.717,0.745c1.116,0.318,1.941,0.704,2.477,1.158c0.536,0.455,0.909,1.069,1.119,1.844c0.315,1.162,0.175,2.197-0.42,3.105c-0.596,0.908-1.554,1.541-2.874,1.9c-0.616,0.167-1.275,0.25-1.977,0.25c-0.702,0-1.085,0.008-1.149,0.025c-0.184,0.05-0.319,0.131-0.404,0.243s-0.122,0.254-0.109,0.428L108.997,46.67zM118.502,43.927l-0.072-0.418c0.801-0.158,1.316-0.381,1.547-0.671c0.231-0.29,0.284-0.798,0.159-1.524l-1.589-9.25c-0.121-0.707-0.343-1.163-0.666-1.368s-0.88-0.25-1.675-0.133l-0.072-0.418l6.273-1.077l0.062,0.42c-0.812,0.173-1.329,0.405-1.552,0.697c-0.224,0.292-0.275,0.792-0.153,1.498l1.588,9.25c0.123,0.713,0.343,1.171,0.662,1.373c0.318,0.203,0.878,0.245,1.679,0.127l0.082,0.417L118.502,43.927zM128.52,42.411l-0.027-0.424c0.88-0.057,1.444-0.226,1.693-0.505c0.249-0.28,0.344-0.87,0.286-1.769l-0.647-9.966c-0.019-0.295-0.074-0.47-0.163-0.523c-0.089-0.054-0.337-0.067-0.744-0.041l-0.345,0.022c-1.35,0.087-2.25,0.339-2.703,0.754c-0.452,0.415-0.702,1.168-0.75,2.259l-0.423,0.027l-0.115-3.592l12.645-0.821l0.233,3.584l-0.443,0.029c-0.183-1.089-0.507-1.808-0.974-2.157c-0.467-0.349-1.496-0.472-3.088-0.368c-0.465,0.03-0.736,0.083-0.813,0.157c-0.078,0.074-0.107,0.249-0.089,0.525l0.642,9.887c0.065,0.998,0.244,1.603,0.538,1.814c0.294,0.212,0.872,0.3,1.733,0.263L135,41.989L128.52,42.411zM142.855,42.082l0.033-0.423l0.098,0.007c0.715,0.056,1.228-0.036,1.536-0.275c0.31-0.24,0.489-0.681,0.539-1.324l0.302-3.847l-4.076-6.733c-0.246-0.395-0.533-0.695-0.86-0.898c-0.327-0.204-0.729-0.334-1.206-0.392l0.032-0.423l6.444,0.504l-0.032,0.413c-0.614,0.005-1.045,0.045-1.291,0.122c-0.247,0.077-0.378,0.203-0.392,0.38c-0.016,0.203,0.084,0.491,0.299,0.865c0.018,0.028,0.029,0.045,0.035,0.052l2.953,5.022l3.163-4.118c0.314-0.398,0.518-0.674,0.609-0.829c0.091-0.154,0.141-0.284,0.149-0.389c0.015-0.19-0.081-0.343-0.286-0.458c-0.205-0.115-0.595-0.221-1.168-0.319l0.033-0.423l4.368,0.342l-0.033,0.423c-0.422-0.006-0.797,0.088-1.126,0.283c-0.328,0.195-0.734,0.601-1.219,1.216l-4.146,5.308l-0.331,4.23c-0.047,0.59,0.065,1.01,0.337,1.259c0.271,0.249,0.809,0.415,1.614,0.498l-0.033,0.423L142.855,42.082zM162.255,37.613c0.666-2.101,1.829-3.585,3.49-4.453s3.529-0.973,5.604-0.315c2.081,0.66,3.551,1.822,4.408,3.488c0.858,1.667,0.954,3.55,0.289,5.651c-0.668,2.107-1.834,3.598-3.497,4.471c-1.663,0.874-3.535,0.981-5.616,0.321c-2.074-0.657-3.54-1.822-4.396-3.495C161.681,41.61,161.587,39.72,162.255,37.613z M164.55,38.341c-0.608,1.919-0.676,3.571-0.201,4.957s1.413,2.301,2.816,2.746c1.41,0.447,2.707,0.24,3.894-0.619c1.186-0.859,2.083-2.249,2.691-4.167c0.604-1.907,0.669-3.551,0.193-4.934c-0.475-1.383-1.417-2.297-2.827-2.744c-1.403-0.445-2.697-0.239-3.883,0.617C166.049,35.053,165.154,36.435,164.55,38.341zM174.781,49.109l0.195-0.377c0.783,0.345,1.34,0.47,1.672,0.375c0.331-0.095,0.663-0.482,0.994-1.163l4.101-8.419c0.319-0.657,0.409-1.164,0.269-1.521s-0.574-0.713-1.302-1.068l0.194-0.399l10.434,5.082l-1.248,3.058l-0.382-0.186c0.271-0.915,0.288-1.625,0.056-2.13c-0.233-0.505-0.806-0.98-1.717-1.423l-2.67-1.301c-0.373-0.181-0.663-0.24-0.869-0.176c-0.207,0.064-0.393,0.265-0.557,0.602l-1.655,3.398c-0.138,0.284-0.189,0.479-0.152,0.584c0.036,0.105,0.179,0.219,0.427,0.34l1.668,0.813c0.958,0.466,1.653,0.651,2.085,0.554s0.815-0.492,1.152-1.184l0.382,0.186l-2.169,4.454l-0.382-0.186c0.33-0.813,0.423-1.408,0.277-1.786s-0.715-0.809-1.708-1.293l-1.687-0.821c-0.219-0.107-0.387-0.141-0.504-0.103s-0.227,0.161-0.327,0.368l-1.698,3.487c-0.322,0.662-0.406,1.18-0.251,1.552s0.624,0.755,1.405,1.15l-0.178,0.386L174.781,49.109zM193.609,59.673l0.258-0.337c0.701,0.534,1.237,0.777,1.608,0.729c0.372-0.048,0.83-0.43,1.377-1.147l6.053-7.944c0.18-0.235,0.253-0.403,0.221-0.501c-0.032-0.099-0.21-0.272-0.535-0.52l-0.274-0.209c-1.076-0.82-1.921-1.222-2.534-1.205c-0.613,0.016-1.297,0.42-2.049,1.211l-0.338-0.257l2.271-2.785l10.079,7.679l-2.178,2.857l-0.353-0.269c0.577-0.941,0.804-1.697,0.681-2.267s-0.819-1.338-2.089-2.305c-0.37-0.283-0.609-0.421-0.717-0.416s-0.244,0.118-0.412,0.337l-6.005,7.881c-0.605,0.795-0.867,1.37-0.784,1.722c0.082,0.353,0.461,0.798,1.135,1.336l-0.25,0.344L193.609,59.673zM201.408,65.619l0.308-0.292c0.594,0.569,1.072,0.866,1.435,0.89c0.363,0.024,0.806-0.224,1.328-0.743l6.668-6.633c0.513-0.51,0.762-0.948,0.746-1.313s-0.304-0.858-0.865-1.478l0.294-0.292l8.436,8.479l-2.058,2.312l-0.299-0.301c0.527-0.729,0.765-1.344,0.713-1.844c-0.053-0.5-0.432-1.105-1.137-1.814l-2.491-2.504c-0.302-0.304-0.534-0.462-0.696-0.477c-0.163-0.014-0.403,0.136-0.721,0.452l-2.665,2.652c-0.205,0.204-0.311,0.359-0.315,0.467c-0.005,0.107,0.1,0.268,0.313,0.482l1.963,1.973c0.771,0.774,1.369,1.183,1.797,1.226s0.927-0.19,1.495-0.701l0.3,0.301l-3.407,3.39l-0.3-0.301c0.532-0.604,0.782-1.119,0.751-1.547s-0.433-1.029-1.202-1.804l-1.977-1.987c-0.19-0.191-0.342-0.289-0.453-0.294c-0.111-0.005-0.272,0.097-0.482,0.306l-2.966,2.951c-0.364,0.362-0.554,0.646-0.567,0.85c-0.015,0.205,0.117,0.447,0.396,0.727l2.304,2.316c0.933,0.938,1.74,1.481,2.424,1.632c0.684,0.15,1.563,0.001,2.639-0.447l0.139,0.405l-3.207,1.646L201.408,65.619zM221.597,84.091l-0.086,0.495c-1.329,0.022-2.497-0.201-3.503-0.669s-1.876-1.196-2.611-2.183c-1.317-1.767-1.846-3.579-1.584-5.435c0.261-1.856,1.262-3.434,3.003-4.731c1.735-1.293,3.572-1.798,5.513-1.513c1.939,0.285,3.559,1.298,4.856,3.039c0.495,0.665,0.899,1.433,1.212,2.303s0.5,1.348,0.563,1.432c0.118,0.159,0.267,0.249,0.447,0.27c0.18,0.021,0.354-0.031,0.523-0.156l0.23,0.309l-3.39,3.031l-0.254-0.34c0.782-1.076,1.196-2.131,1.244-3.168c0.048-1.037-0.272-2.017-0.96-2.939c-0.964-1.292-2.221-1.976-3.771-2.052c-1.55-0.075-3.113,0.475-4.689,1.65c-1.515,1.129-2.461,2.448-2.841,3.958c-0.381,1.51-0.112,2.879,0.804,4.108c0.634,0.849,1.367,1.478,2.2,1.887C219.339,83.795,220.369,84.03,221.597,84.091zM219.326,86.374l0.38-0.189c0.396,0.721,0.768,1.145,1.116,1.269c0.349,0.125,0.849,0.016,1.5-0.329l8.301-4.379c0.634-0.334,0.998-0.687,1.094-1.057c0.095-0.37-0.035-0.919-0.39-1.647l0.367-0.193l2.951,5.595l-0.366,0.193c-0.422-0.715-0.806-1.131-1.151-1.25c-0.345-0.119-0.835-0.011-1.469,0.323l-3.081,1.625c-0.228,0.12-0.358,0.238-0.395,0.353c-0.035,0.116,0.005,0.284,0.122,0.505l2.771,5.254c0.102,0.192,0.208,0.299,0.32,0.322c0.112,0.023,0.294-0.032,0.544-0.164l3.038-1.603c0.628-0.332,0.99-0.677,1.087-1.037c0.097-0.36-0.032-0.911-0.387-1.654l0.37-0.207l2.962,5.612l-0.376,0.198c-0.397-0.712-0.772-1.132-1.122-1.26c-0.35-0.127-0.848-0.021-1.494,0.32l-8.3,4.379c-0.635,0.334-1,0.686-1.097,1.052c-0.096,0.367,0.036,0.913,0.396,1.638l-0.375,0.198l-2.961-5.612l0.38-0.189c0.398,0.712,0.773,1.132,1.127,1.258c0.353,0.126,0.844,0.023,1.472-0.308l3.404-1.796c0.232-0.123,0.368-0.235,0.407-0.338s0.008-0.25-0.094-0.441l-2.781-5.272c-0.104-0.198-0.221-0.315-0.348-0.352s-0.296,0-0.505,0.11l-3.387,1.787c-0.64,0.338-1.009,0.687-1.104,1.046c-0.097,0.359,0.036,0.905,0.399,1.635l-0.375,0.198L219.326,86.374zM229.893,102.612c-0.736,0.247-1.17,0.527-1.3,0.841c-0.131,0.314-0.092,0.877,0.118,1.688l-0.403,0.135l-1.598-4.772l0.402-0.135c0.321,0.773,0.629,1.246,0.922,1.418c0.294,0.172,0.809,0.135,1.545-0.111l9.273-3.106c0.357-0.404,0.591-0.793,0.702-1.167c0.11-0.374,0.114-0.776,0.012-1.206l0.402-0.135l1.145,3.416l-6.793,11.007l7.205-2.413c0.735-0.247,1.17-0.526,1.302-0.837c0.131-0.311,0.09-0.868-0.123-1.671l0.402-0.135l1.593,4.753l-0.402,0.135c-0.313-0.769-0.617-1.24-0.91-1.412c-0.294-0.172-0.809-0.135-1.545,0.111l-11.042,3.699l-0.135-0.402l7.696-12.538L229.893,102.612zM238.48,114.142c2.176-0.355,4.025,0.012,5.55,1.103c1.524,1.09,2.462,2.708,2.813,4.856c0.352,2.154-0.021,3.991-1.12,5.509c-1.099,1.519-2.735,2.455-4.911,2.81c-2.182,0.356-4.038-0.01-5.568-1.099c-1.531-1.089-2.473-2.71-2.824-4.865c-0.351-2.148,0.026-3.981,1.132-5.5C234.655,115.436,236.299,114.498,238.48,114.142z M238.869,116.519c-1.987,0.324-3.491,1.011-4.514,2.06c-1.021,1.049-1.414,2.3-1.177,3.753c0.238,1.459,1.009,2.524,2.312,3.194c1.302,0.669,2.947,0.842,4.934,0.518c1.974-0.322,3.471-1.007,4.489-2.056s1.408-2.303,1.17-3.762c-0.237-1.453-1.005-2.515-2.305-3.185C242.479,116.37,240.843,116.196,238.869,116.519zM233.892,130.563l0.425-0.007l0.001,0.099c0.013,0.743,0.165,1.247,0.459,1.512s0.858,0.391,1.694,0.377l9.098-0.147c0.822-0.014,1.343-0.155,1.562-0.425c0.22-0.27,0.326-0.81,0.319-1.619l0.425-0.017l0.103,6.364l-0.424,0.007l-0.002-0.099c-0.012-0.743-0.16-1.257-0.444-1.542c-0.284-0.285-0.785-0.422-1.502-0.41l-9.403,0.152c-0.625,0.01-1.015,0.105-1.17,0.286s-0.228,0.56-0.219,1.139l0.04,2.417c0.017,1.04,0.259,1.891,0.727,2.554c0.469,0.663,1.199,1.191,2.192,1.583l0.007,0.425l-3.699-1.085L233.892,130.563zM241.055,144.416c2.186,0.288,3.85,1.174,4.995,2.658c1.145,1.483,1.574,3.305,1.29,5.462c-0.286,2.164-1.174,3.814-2.664,4.95c-1.49,1.137-3.328,1.561-5.513,1.272c-2.191-0.289-3.863-1.176-5.015-2.661c-1.151-1.484-1.584-3.309-1.299-5.473c0.285-2.158,1.176-3.805,2.673-4.939C237.02,144.55,238.863,144.127,241.055,144.416z M240.74,146.803c-1.996-0.263-3.635-0.04-4.916,0.669c-1.281,0.71-2.019,1.794-2.211,3.254c-0.193,1.466,0.236,2.707,1.29,3.725s2.578,1.658,4.574,1.921c1.982,0.262,3.613,0.038,4.892-0.672s2.014-1.798,2.207-3.264c0.192-1.46-0.236-2.698-1.286-3.715C244.239,147.704,242.723,147.064,240.74,146.803zM229.35,172.407c-0.282-1.015-0.422-2.021-0.419-3.021s0.154-1.991,0.454-2.973c0.669-2.189,1.837-3.766,3.504-4.729c1.666-0.963,3.519-1.133,5.558-0.511c2.107,0.645,3.618,1.854,4.53,3.629c0.913,1.775,1.037,3.751,0.371,5.928c-0.259,0.85-0.656,1.653-1.19,2.412s-0.813,1.176-0.836,1.251c-0.049,0.157-0.027,0.312,0.064,0.464c0.091,0.151,0.244,0.291,0.46,0.419l-0.092,0.333l-4.188-1.052l0.124-0.406c1.379-0.102,2.441-0.42,3.187-0.956s1.292-1.373,1.64-2.512c0.484-1.586,0.306-3.032-0.537-4.339s-2.201-2.246-4.076-2.818c-1.9-0.581-3.565-0.557-4.996,0.072c-1.431,0.63-2.393,1.753-2.887,3.37c-0.183,0.598-0.264,1.193-0.242,1.788s0.14,1.125,0.355,1.59l3.614,1.104c0.774,0.236,1.281,0.271,1.521,0.104c0.24-0.168,0.517-0.695,0.829-1.584l0.425,0.13l-1.747,5.72l-0.425-0.13c0.18-0.654,0.208-1.114,0.087-1.382s-0.521-0.505-1.201-0.713L229.35,172.407zM226.108,176.278l0.384,0.181l-0.042,0.089c-0.305,0.649-0.399,1.161-0.284,1.535c0.115,0.373,0.465,0.697,1.048,0.972l3.493,1.641l7.738-1.436c0.457-0.09,0.839-0.253,1.145-0.486c0.307-0.234,0.57-0.564,0.793-0.991l0.384,0.181l-2.748,5.851l-0.375-0.177c0.212-0.576,0.326-0.993,0.343-1.251c0.016-0.258-0.058-0.425-0.218-0.5c-0.185-0.087-0.489-0.096-0.915-0.026c-0.032,0.007-0.053,0.012-0.062,0.016l-5.741,0.988l2.735,4.413c0.261,0.436,0.447,0.723,0.56,0.863c0.112,0.14,0.216,0.232,0.312,0.276c0.173,0.081,0.35,0.046,0.529-0.105c0.181-0.151,0.417-0.479,0.711-0.979l0.384,0.181l-1.862,3.966l-0.384-0.181c0.155-0.393,0.199-0.777,0.133-1.153c-0.067-0.377-0.303-0.899-0.708-1.569l-3.5-5.755l-3.841-1.805c-0.536-0.251-0.969-0.295-1.297-0.129c-0.328,0.165-0.674,0.61-1.036,1.334l-0.384-0.18L226.108,176.278zM183.75,128.875C199.5,118.25,192,95,173.25,94.5c-21.5,0-86.25,0-86.25,0v10c0,0,54.5,0,67,0c3.052,0,5.44,0.972,7.199,2.5H111.75v4h52.251c2.65,6.646-0.811,16-10.001,16c-15.75,0-67,0-67,0v10c0,0,51.25,0,67,0c13.5,0,13,16.25,0,16.25c-16,0-67,0-67,0v10c0,0,76.25,0,87.5,0C205,162,198.25,129.75,183.75,128.875zM111.75,115.667h29.424v6h-29.424zv26.708h29.423v6h-29.424zM198.785,190.918c-0.13-0.74,0.433-0.789,0.457-1.374c0.728-0.039,1.749,0.221,1.834-0.459c0.499-0.113,0.312-0.911,0.918-0.918c-0.76-1.169-3.014,0.007-3.209,0.918c-1.894-0.569,0.172-1.333,0.457-2.293c-0.195-0.72-1.441-0.393-0.916-1.833c3.266,0.04,3.672-2.489,3.209-5.043c1.994-0.313,2.538,0.824,3.21,1.833c0.068,1.139-0.236,1.903-0.917,2.292c-0.278,0.755,1.146,0.778,1.374,1.376c0.202,0.532-0.208,1.304,0,1.834c0.231,0.585,1.398,0.51,0.918,2.293c1.564-0.729,1.432-3.155,2.75-4.127c0.011-1.08-0.79-1.351-0.458-2.75c1.08,0.009,1.35-0.791,2.752-0.46c0.238,0.679,0.677,1.155,0.915,1.834c-0.544,1.471-1.462,2.848-2.292,4.126c-0.182,0.28-0.773,0.662-0.917,0.918c-0.092,0.168,0.143,0.801,0,0.915c-0.104,0.087-1.764,0.854-1.375,1.836c1.811,0.588,1.108-1.335,2.292-1.377c1.995-0.313,2.539,0.826,3.21,1.835c0.082,1.608-1.548,1.508-1.833,2.751c-0.312,1.064-1.524,1.228-1.834,2.292c-2.824,0.69-4.849,2.182-7.795,2.751c0.479-1.197,1.824-1.543,2.75-2.293c0.364-0.294,0.532-0.62,0.917-0.916c0.584-0.448,1.776-1.197,2.293-2.294c0.023-0.3-0.606-0.534-0.916-0.457c-0.445,0.111-0.25,0.371-0.459,0.457c-1.672,0.69-3.87,1.878-5.502,3.21c-0.802,0.654-1.484,1.082-2.292,1.835c-1.07,0-2.141,0-3.209,0c-0.514-0.662-0.495-1.119,0.458-1.376c0.021-0.88-1.477-0.586-1.834-0.917c-0.226-0.209,0.14-1.074-0.458-0.916c0.448-2.131-0.595-2.768-0.917-4.127c1.585-0.363,1.935,0.509,2.751,0.918c0.252,1.58,1.637,2.028,1.375,4.125c0.429-0.102,0.955,0.127,1.375,0c0.35-0.106,0.339-0.419,0.459-0.458c0.674-0.219,1.181-0.144,1.834-0.458c0.225-0.109-0.047-0.433,0.458-0.459c0.146-0.008,0.75-0.351,0.917-0.459c0.314-0.204,0.687-0.796,0.917-0.918c0.724-0.376,1.758-0.059,2.293-0.916c0.462-1.379-1.021-0.812-1.833-0.917c-2.145,0.15-2.21,2.376-4.586,2.293c0.052-1.629,1.695-1.666,1.376-3.668C199.688,190.931,199.14,191.021,198.785,190.918z M204.285,190.918c0.596-0.608,0.604-1.706-0.457-1.833C203.232,189.694,203.224,190.791,204.285,190.918zM151.563,180.374c2.041-0.514,1.647,1.406,2.292,2.293c1.321-0.207,1.435-1.624,3.208-1.377c1.346,0.032,1.703,1.05,2.294,1.834c-0.048,0.898-0.828,1.8-1.376,2.293c-0.366,0.33-0.951,0.139-1.376,0.459c-0.489,0.366-0.805,0.933-1.833,1.375c-0.872,0.374-2.843,0.321-2.294,2.749c2.235-0.21,3.154-1.734,5.045-2.291c1.413-0.88,2.304-2.282,4.584-2.292c0.162,0.601,0.808,0.721,0.917,1.375c-0.605,3.08-5.826,1.975-7.794,3.667c-0.141,1.21,0.957,1.182,1.833,1.377c-0.564,2.184-2.557,2.942-4.125,4.126c0.039,0.65,0.076,1.298-0.46,1.375c-0.4,1.472,1.19,0.951,1.377,1.833c0.907,3.135-2.235,4.719-1.834,8.712c1.92,0.393,1.004-2.053,1.834-2.751c1.729,0.104,2.473,1.193,2.293,3.21c-1.885,0.866-4.703,0.799-4.127,4.126c-2.109-0.03-2.976-1.304-4.585-1.835c-0.68,0.391-0.985,1.154-0.917,2.294c-1.704-0.438-3.215-1.066-3.208-3.211c2.091-0.506,4.424-0.771,5.958-1.833c-0.796-1.933-0.913-2.32,0.46-3.668c-0.336-0.428-0.834-0.695-1.377-0.917c-0.4-1.472,1.19-0.95,1.377-1.833c-0.143-0.622-1.148-0.382-1.833-0.46c-0.216-1.437,1.151-1.291,1.833-1.834c0.27-0.952,0.963-1.48,1.375-2.291c-1.044,0.054-1.885,0.688-2.752,1.375c-0.619,0.49-1.134,2.341-1.833,1.376c-1.922,0.168-0.327-1.494-0.459-2.293c-4.679,1.434-5.742,6.481-12.377,5.96c-0.078-2.522,2.179-2.711,3.667-3.667c3.665-2.906,7.932-5.212,12.379-7.336c-0.487-1.31-1.552,0.229-2.293,0c-0.301-0.094-0.327-1.062-0.917-0.917c-0.816-0.273-1.903,1.343-2.292,0c-1.438,0.216-1.212-1.234-2.293-1.377c0.517-1.469,2.675-1.297,4.126-1.833c0.301-1.685,0.891-3.083,0.918-5.043c1.745-0.063,2.034,1.327,2.291,2.752C152.049,186.057,150.587,181.994,151.563,180.374z M152.938,185.417c1.011,0.192,2.528-1.374,1.376-1.834C154.45,184.789,152.535,183.943,152.938,185.417z M149.729,188.167c0.305,0,0.611,0,0.916,0c0-0.304,0-0.611,0-0.916c-0.305,0-0.611,0-0.916,0C149.729,187.556,149.729,187.863,149.729,188.167z M148.812,195.962c0.979,0.056,1.55-0.84,2.293-1.377c0.584-0.421,2.097-0.512,1.834-1.833C150.737,192.998,149.055,193.758,148.812,195.962z M148.353,210.174c0.459,0,0.917,0,1.377,0c0-0.459,0-0.916,0-1.375c-0.305,0-0.612,0-0.918,0C148.788,209.385,148.224,209.435,148.353,210.174zM70.415,181.29c0.458,0,0.917,0,1.375,0c0.192,0.558,1.023,0.525,1.375,0.917c0.355,0.396,0.15,0.871,0.458,1.376c0.148,0.243,0.826,0.706,0.917,0.917c0.23,0.535-0.281,1.387,0.458,1.376c-0.361,2.313-2.141,4.723-2.75,7.336c-0.135,0.577,0.136,1.254,0,1.833c-0.266,1.129-0.583,4.406-0.458,6.876c0.096,1.91,1.067,3.762,0.458,5.502c-1.228,1.234-1.743-0.583-2.751-0.917c0.014,0.941-1.32,0.776-1.375,1.835c-0.043,0.813-0.546,1.445-0.917,1.833c-0.374,0.39-0.549,0.991-0.917,1.375c-0.164,0.173-0.885,1.267-1.375,1.834c-0.544,0.63-0.418,0.607-1.375,0.917c-0.031,0.011-0.956,0.878-1.376,0.459c-0.382-0.383-0.798-0.729-1.375-0.918c-0.266-1.983,1.346-2.773,2.292-3.667c0.451-0.426,0.833-0.941,1.375-1.375c0.509-0.408,1.453-0.553,1.834-0.917c0.376-0.36,0.127-0.941,0.459-1.376c0.118-0.153,0.777,0.141,0.917,0c0.156-0.156-0.145-0.747,0-0.918c0.545-0.638,1.616-0.856,1.833-1.833c-0.444-6.553-0.482-12.266,0.917-17.879C70.621,184.133,69.227,182.614,70.415,181.29zM107.092,184.5c0.025,0.946-0.562,1.633-1.376,1.834c-0.899,0.225-1.215,0.063-1.833,0.458c-0.217,0.139-0.341,0.389-0.459,0.459c-0.39,0.231-1.175,0.882-1.834,0.916c-0.539,0.029-1.173,0.913-1.833,1.377c-0.47,0.328-0.968,0.583-1.376,0.915c-0.315,0.258-0.635,0.708-0.917,0.918c-0.164,0.12-0.793-0.152-0.917,0c-0.395,0.48-0.62,0.294-1.376,0.459c-0.359,0.077-2.335,1.309-2.75-0.459c-0.526-1.232,1.063-0.537,1.374-0.918c0.369-0.448,0.404-0.588,0.917-0.915c0.703-0.448,2.405-1.736,3.668-2.293c-0.277-1.709-2.107-1.866-2.292-3.668c1.059-0.728,3.294-0.507,4.584,0c0.67,0.264,0.529-0.028,0.917,0.458c0.158,0.198-0.007,0.58,0.458,0.459C104.248,184.327,105.496,182.96,107.092,184.5zM170.819,183.583c0.458,0,0.916,0,1.374,0c0.087,1.189,1.646,0.905,2.293,1.376c0.148,0.108-0.146,0.798,0,0.917c0.38,0.31,1.064,0.097,1.375,0.458c-0.075,0.533,0.102,0.815,0.458,0.917c0.273,2.413-0.339,3.938-0.458,5.961c3.195,0.192,3.298-4.819,6.418-3.212c1.028,1.683-1.189,2.729-2.292,3.669c-1.297,1.108-3.076,1.864-4.126,2.752c0.163,2.606-0.955,3.935-0.917,6.417c-1.155,0.607-1.586,1.604-2.292,2.75c-0.116,0.19-0.289,0.768-0.459,0.918c-0.151,0.137-0.789-0.155-0.916,0c-0.55,0.671-1.36,1.095-2.292,1.835c-1.988,0-3.975,0-5.961,0c-0.015-2.349,2.162-0.979,3.209-1.377c3.213-1.219,4.743-3.632,5.96-6.876c-2.104-1.28-2.953,2.089-5.042,2.292c0.255,1.018-0.88,0.653-0.918,1.375c-0.042,0.779-0.873,0.426-1.834,0.918c-0.158,0.081-0.829,0.9-0.917,0.915c-1.125,0.2-2.244-0.237-3.209-0.457c0-0.611,0-1.222,0-1.834c-0.524-1.231,1.065-0.537,1.375-0.917c0.146-0.176,0.711-0.972,1.834-0.916c3.337-1.555,6.243-3.539,9.17-5.502c0.358-2.651-0.666-3.92-0.459-6.418c-0.545-1.443-1.547-2.427-1.834-4.127C170.301,184.595,170.921,184.451,170.819,183.583zM84.628,184.959c-0.02,0.782,0.341,1.187,0.916,1.375c-0.153,1.985,0.523,4.803-0.916,5.502c-0.249,1.623,1.623,1.126,1.375,2.749c-0.157,2.139-2.604,1.982-3.668,3.21c0.287,2.58-1.757,2.828-1.834,5.043c0.64,1.381,2.373-0.951,3.21,0.459c0.796,1.611-0.503,2.91-2.751,2.751c-1.618,0.521-2.858,1.421-5.043,1.375c-1.466-1.209-0.769-2.668-0.458-4.126c0.296-1.386,1.155-2.996,1.833-3.667c0.315-1.233-0.948-0.887-1.376-1.376c0.629-1.053,1.888-1.475,2.751-2.292c0.716-3.41,2.704-5.549,2.75-9.628c0.428-0.336,0.694-0.833,0.917-1.375C83.099,184.959,83.863,184.959,84.628,184.959zM127.265,188.167c0.262,2.274-1.536,3.651-2.293,5.045c-0.828,1.523-1.443,2.973-2.292,4.583c1.353,0.45,2.57-1.317,3.668-1.374c0.913-0.048,2.761-0.989,3.667-1.836c1.055,0.476,2.11,0.948,2.75,1.836c0.584,1.139-0.862,0.974-1.374,1.374c-0.228,0.179-0.242,0.754-0.459,0.917c-0.163,0.122-0.792-0.151-0.917,0c-0.039,0.048,0.05,0.439,0,0.458c-0.865,0.336-1.967-0.032-2.75,0.46c-1.003,0.678-2.468,0.894-3.209,1.834c-1.017,0.252-0.653-0.877-1.376-0.917c-0.554,0.657-1.263,0.549-1.834,0.917c-0.174,0.111-0.307,0.847-0.458,0.916c-0.237,0.106-0.702-0.14-0.917,0c-0.385,0.25-0.942,1.098-1.376,1.375c-0.167,0.108-0.795-0.146-0.917,0c-0.113,0.139-0.322,0.834-0.458,0.918c-0.167,0.103-0.798-0.146-0.916,0c-0.045,0.053,0.057,0.431,0,0.458c-0.167,0.079-0.809-0.134-0.918,0c-0.368,0.45-0.403,0.588-0.917,0.917c-0.521,0.331-0.956,0.514-1.376,0.916c-0.266,0.256-1.173,0.742-2.292,0.918c-0.696,0.132-1.476-0.611-1.833-0.918c-0.403-0.344-0.976-0.565-0.917-1.376c-0.345-1.236,1.277-1.088,1.834-1.374c0.211-0.108,0.758-0.868,0.917-0.917c0.42-0.127,0.948,0.102,1.375,0c2.793-1.485,5.88-2.679,8.711-4.127c0.569-3.098,0.761-6.573,2.292-8.711c-1.099-1.508-1.353,1.669-3.209,0.918c-1.491-0.577-3.335-1.539-3.209-4.126c2.505-0.857,6.446-0.279,9.168-0.917c-0.083,0.391,0.181,0.432,0.459,0.458C126.336,187.26,126.795,187.72,127.265,188.167zM198.785,193.212c-1.121,0.456-0.978,0.152-2.752,0.457c-0.805-0.531,0.159-0.815,0-1.375c-0.334-1.185-1.835-1.936-1.374-4.127c1.296-0.378,1.187,0.646,2.291,0.459C197.622,190.094,199.194,190.66,198.785,193.212zM102.507,189.085c0.671,0.398,1.454,0.687,1.376,1.833c0.314,1.234-0.948,0.887-1.376,1.376c0.02,0.785-0.34,1.188-0.917,1.375c0.266,1.489-0.312,2.134-0.459,3.21c-1.442,0.695-2.236,2.041-4.126,2.291c0.479,1.259-1.377,0.361-1.833,0.918c-0.073,0.09-0.789,1.701-1.834,1.376c-0.633-0.741-1.622-1.129-1.375-2.752c-0.879-0.387-1.241-2.012-0.458-2.75c1.96-0.127,2.337,1.331,3.209,2.292c0.635-0.74,1.299-1.452,1.834-2.292c0.681-0.542,2.048-0.396,1.833-1.834c-0.865-1.275-1.851,1.169-3.668,0.457c-0.439-1.33,2.074-1.324,2.751-1.833c0.194-0.145,0.273-0.809,0.458-0.916c0.168-0.1,0.8,0.144,0.918,0c0.043-0.055-0.058-0.432,0-0.459c0.165-0.079,0.807,0.133,0.917,0c0.049-0.06-0.064-0.424,0-0.459c0.168-0.093,0.801,0.143,0.916,0C101.194,190.282,101.883,190.014,102.507,189.085zM100.673,199.63c1.714-0.174,2.142,1.422,2.751,2.291c0.181,0.259,0.43-0.074,0.459,0.459c0.036,0.695,1.396,0.915,0.916,2.751c-0.408,0.202-0.819,0.403-0.916,0.917C99.995,206.321,99.922,201.48,100.673,199.63zM68.581,201.921c0.088,2.073-1.194,2.779-2.75,3.21c-0.363,1.473-1.665,2.003-2.292,3.21c-1.844-1.123,0.482-2.654,0.458-4.586c0.115-1.337-0.863-1.581-1.375-2.291c0.145-1.572,2.214-1.675,3.667-1.376c0.074,0.016,0.074,0.438,0.459,0.459C67.19,200.57,68.308,201.134,68.581,201.921zM179.987,200.547c2.399,0.503,4.194,1.612,5.961,2.75c-0.056,1.32,0.25,3-0.459,3.667c-1.576,0.201-2.569-0.181-3.667-0.458c-0.717-1.423-1.201-3.079-2.293-4.126C179.335,201.422,179.843,201.165,179.987,200.547zM190.074,200.547c0.458,0,0.916,0,1.376,0c1.386,1.438,1.101,4.946-0.46,5.959c-1.584,0.362-1.935-0.51-2.75-0.918C188.354,203.411,189.646,202.41,190.074,200.547zM204.285,201.464c0.222,1.442-0.651,1.791-0.916,2.75c1.432,1.202,1.994-1.401,3.668-1.376c1.438-0.215,1.211,1.234,2.293,1.376c-0.555,1.892-3.644,1.247-4.128,3.209c-0.74,0.129-0.789-0.433-1.374-0.459c0.018,1.509,0.773,2.283,0.457,4.128c-0.445,0.011-0.354,0.56-0.457,0.916c-1.148-0.077-1.436,0.704-1.834,1.375c-1.336-0.242-2.977,0.325-4.127,0c-0.129-0.036-0.028-0.436-0.459-0.457c-0.607-0.033-0.716-0.885-1.375-0.918c-0.444-0.022-0.356-0.553-0.458-0.916c1.528,0,3.057,0,4.585,0c0.906-0.317,1.223-1.224,1.375-2.293c-0.984-0.643-1.326,0.738-2.293,0.916c-1.553,0.288-2.945-0.163-4.125-0.916c0.245-1.028,1.618-0.63,2.291-0.917c1.096-0.466,2.07-1.551,3.21-1.834c-0.068-1.14,0.237-1.903,0.917-2.293c-0.285-1.242-1.915-1.141-1.833-2.751C201,199.936,203.162,200.938,204.285,201.464zM96.089,201.004c0.611,0,1.223,0,1.833,0c0.898,0.857,0.142,1.68,0,2.751c0.352,1.083,0.904,3.17,0,4.127c-0.782,0.473-2.118-0.13-3.667,0c-0.942,0.079-1.882,0.748-2.75,0.459c-0.976,0.34-1.196,1.582-1.834,2.291c-0.268,0.298-0.59,1.19-0.917,1.376c-0.476,0.269-1.431-0.312-1.375,0.459c-1.517-0.471-2.704-1.271-2.75-3.209c0.408-0.357,1.035-0.495,1.833-0.459c-0.213-0.979,0.656-0.874,1.376-0.917c0.951-1.161,2.346-1.949,3.667-2.751c1.13-0.687,2.333-1.87,4.126-1.834C95.442,202.192,96.468,202.302,96.089,201.004z M93.338,206.506c1.373-0.002,1.927-0.823,2.293-1.833C94.286,204.704,93.927,205.72,93.338,206.506zM118.7,219.64h2.82V234h-1.42v-12.96h-2.26L118.7,219.64zM129.919,234.36l-1.18-0.761l3.88-5.88c-0.507,0.174-1.007,0.261-1.5,0.261c-1.147,0-2.11-0.414-2.89-1.24c-0.78-0.827-1.17-1.84-1.17-3.04c0-1.267,0.433-2.32,1.3-3.16s1.927-1.26,3.18-1.26c1.267,0,2.31,0.43,3.13,1.29c0.82,0.859,1.23,1.89,1.23,3.09c0,0.667-0.137,1.337-0.41,2.01c-0.273,0.674-0.677,1.403-1.21,2.19L129.919,234.36zM128.459,223.7c0,0.84,0.293,1.554,0.88,2.14c0.587,0.587,1.3,0.88,2.14,0.88c0.84,0,1.553-0.296,2.14-0.89c0.586-0.593,0.88-1.303,0.88-2.13s-0.293-1.537-0.88-2.13c-0.587-0.594-1.3-0.891-2.14-0.891c-0.84,0-1.553,0.294-2.14,0.88C128.753,222.146,128.459,222.86,128.459,223.7zM144.499,219.28l1.181,0.76l-3.881,5.88c0.547-0.187,1.066-0.28,1.561-0.28c1.066,0,2,0.424,2.8,1.271s1.2,1.87,1.2,3.07c0,1.239-0.438,2.279-1.311,3.119c-0.873,0.841-1.937,1.261-3.189,1.261c-1.24,0-2.277-0.427-3.11-1.28c-0.833-0.854-1.25-1.894-1.25-3.12c0-0.587,0.113-1.19,0.34-1.81c0.227-0.62,0.66-1.41,1.299-2.37L144.499,219.28zM145.939,229.94c0-0.841-0.294-1.554-0.881-2.141c-0.586-0.586-1.299-0.88-2.14-0.88c-0.84,0-1.554,0.294-2.14,0.88c-0.587,0.587-0.88,1.3-0.88,2.141c0,0.84,0.296,1.553,0.89,2.14s1.303,0.88,2.13,0.88s1.536-0.293,2.13-0.88S145.939,230.78,145.939,229.94zM153.699,234.36c-1.547,0-2.736-0.637-3.57-1.91c-0.833-1.273-1.25-3.15-1.25-5.63c0-2.48,0.417-4.356,1.25-5.63c0.834-1.273,2.023-1.91,3.57-1.91c1.521,0,2.73,0.649,3.63,1.95c0.9,1.3,1.351,3.163,1.351,5.59s-0.454,4.29-1.36,5.59C156.412,233.71,155.206,234.36,153.699,234.36z M153.739,220.64c-1.106,0-1.967,0.534-2.58,1.601s-0.92,2.606-0.92,4.62c0,4.133,1.167,6.199,3.5,6.199c1.133,0,2.017-0.543,2.65-1.63c0.633-1.086,0.949-2.609,0.949-4.569c0-2.014-0.326-3.554-0.979-4.62S154.832,220.64,153.739,220.64z" />
</svg>